<mxfile host="app.diagrams.net" modified="2021-12-28T13:35:20.481Z" agent="5.0 (Windows NT 10.0; Win64; x64) AppleWebKit/537.36 (KHTML, like Gecko) Chrome/96.0.4664.110 Safari/537.36" etag="iPaRwvV5pAF_JxA4_635" version="16.1.0" type="github">
  <diagram id="exyECUTMSb_gSA3oTmDK" name="Page-1">
    <mxGraphModel dx="781" dy="1057" grid="1" gridSize="10" guides="1" tooltips="1" connect="1" arrows="1" fold="1" page="1" pageScale="1" pageWidth="827" pageHeight="1169" math="0" shadow="0">
      <root>
        <mxCell id="0" />
        <mxCell id="1" parent="0" />
        <mxCell id="oS1sgOEpO3I71QpZgbu4-1" value="姓名" style="html=1;dashed=0;whitespace=wrap;shape=mxgraph.dfd.start" vertex="1" parent="1">
          <mxGeometry x="90" y="200" width="80" height="30" as="geometry" />
        </mxCell>
        <mxCell id="oS1sgOEpO3I71QpZgbu4-2" value="储户" style="rounded=0;whiteSpace=wrap;html=1;" vertex="1" parent="1">
          <mxGeometry x="170" y="320" width="120" height="60" as="geometry" />
        </mxCell>
        <mxCell id="oS1sgOEpO3I71QpZgbu4-4" value="" style="endArrow=none;html=1;rounded=0;exitX=0.5;exitY=0.5;exitDx=0;exitDy=15;exitPerimeter=0;entryX=0;entryY=0;entryDx=0;entryDy=0;" edge="1" parent="1" source="oS1sgOEpO3I71QpZgbu4-1" target="oS1sgOEpO3I71QpZgbu4-2">
          <mxGeometry width="50" height="50" relative="1" as="geometry">
            <mxPoint x="130" y="360" as="sourcePoint" />
            <mxPoint x="180" y="310" as="targetPoint" />
          </mxGeometry>
        </mxCell>
        <mxCell id="oS1sgOEpO3I71QpZgbu4-5" value="住址" style="html=1;dashed=0;whitespace=wrap;shape=mxgraph.dfd.start" vertex="1" parent="1">
          <mxGeometry x="200" y="150" width="80" height="30" as="geometry" />
        </mxCell>
        <mxCell id="oS1sgOEpO3I71QpZgbu4-7" value="" style="endArrow=none;html=1;rounded=0;entryX=0.25;entryY=0;entryDx=0;entryDy=0;" edge="1" parent="1" source="oS1sgOEpO3I71QpZgbu4-5" target="oS1sgOEpO3I71QpZgbu4-2">
          <mxGeometry width="50" height="50" relative="1" as="geometry">
            <mxPoint x="180" y="460" as="sourcePoint" />
            <mxPoint x="230" y="410" as="targetPoint" />
          </mxGeometry>
        </mxCell>
        <mxCell id="oS1sgOEpO3I71QpZgbu4-8" value="电话号码" style="html=1;dashed=0;whitespace=wrap;shape=mxgraph.dfd.start" vertex="1" parent="1">
          <mxGeometry x="310" y="150" width="80" height="30" as="geometry" />
        </mxCell>
        <mxCell id="oS1sgOEpO3I71QpZgbu4-10" value="" style="endArrow=none;html=1;rounded=0;exitX=0.5;exitY=0.5;exitDx=0;exitDy=15;exitPerimeter=0;entryX=0.5;entryY=0;entryDx=0;entryDy=0;" edge="1" parent="1" source="oS1sgOEpO3I71QpZgbu4-8" target="oS1sgOEpO3I71QpZgbu4-2">
          <mxGeometry width="50" height="50" relative="1" as="geometry">
            <mxPoint x="420" y="290" as="sourcePoint" />
            <mxPoint x="470" y="240" as="targetPoint" />
          </mxGeometry>
        </mxCell>
        <mxCell id="oS1sgOEpO3I71QpZgbu4-11" value="身份证号码" style="html=1;dashed=0;whitespace=wrap;shape=mxgraph.dfd.start" vertex="1" parent="1">
          <mxGeometry x="450" y="150" width="80" height="30" as="geometry" />
        </mxCell>
        <mxCell id="oS1sgOEpO3I71QpZgbu4-12" value="" style="endArrow=none;html=1;rounded=0;entryX=0.5;entryY=0.5;entryDx=0;entryDy=15;entryPerimeter=0;exitX=0.75;exitY=0;exitDx=0;exitDy=0;" edge="1" parent="1" source="oS1sgOEpO3I71QpZgbu4-2" target="oS1sgOEpO3I71QpZgbu4-11">
          <mxGeometry width="50" height="50" relative="1" as="geometry">
            <mxPoint x="360" y="290" as="sourcePoint" />
            <mxPoint x="410" y="240" as="targetPoint" />
          </mxGeometry>
        </mxCell>
        <mxCell id="oS1sgOEpO3I71QpZgbu4-13" value="存取款" style="rhombus;whiteSpace=wrap;html=1;" vertex="1" parent="1">
          <mxGeometry x="414" y="320" width="130" height="60" as="geometry" />
        </mxCell>
        <mxCell id="oS1sgOEpO3I71QpZgbu4-15" value="" style="endArrow=none;html=1;rounded=0;exitX=1;exitY=0.5;exitDx=0;exitDy=0;entryX=0;entryY=0.5;entryDx=0;entryDy=0;" edge="1" parent="1" source="oS1sgOEpO3I71QpZgbu4-2" target="oS1sgOEpO3I71QpZgbu4-13">
          <mxGeometry width="50" height="50" relative="1" as="geometry">
            <mxPoint x="230" y="500" as="sourcePoint" />
            <mxPoint x="280" y="450" as="targetPoint" />
          </mxGeometry>
        </mxCell>
        <mxCell id="oS1sgOEpO3I71QpZgbu4-16" value="M" style="text;html=1;align=center;verticalAlign=middle;resizable=0;points=[];autosize=1;strokeColor=none;fillColor=none;" vertex="1" parent="1">
          <mxGeometry x="345" y="320" width="30" height="20" as="geometry" />
        </mxCell>
        <mxCell id="oS1sgOEpO3I71QpZgbu4-17" value="" style="endArrow=none;html=1;rounded=0;exitX=1;exitY=0.5;exitDx=0;exitDy=0;entryX=0;entryY=0.5;entryDx=0;entryDy=0;" edge="1" parent="1" source="oS1sgOEpO3I71QpZgbu4-13" target="oS1sgOEpO3I71QpZgbu4-19">
          <mxGeometry width="50" height="50" relative="1" as="geometry">
            <mxPoint x="610" y="500" as="sourcePoint" />
            <mxPoint x="640" y="350" as="targetPoint" />
          </mxGeometry>
        </mxCell>
        <mxCell id="oS1sgOEpO3I71QpZgbu4-18" value="N" style="text;html=1;align=center;verticalAlign=middle;resizable=0;points=[];autosize=1;strokeColor=none;fillColor=none;" vertex="1" parent="1">
          <mxGeometry x="590" y="320" width="20" height="20" as="geometry" />
        </mxCell>
        <mxCell id="oS1sgOEpO3I71QpZgbu4-19" value="储蓄所" style="rounded=0;whiteSpace=wrap;html=1;" vertex="1" parent="1">
          <mxGeometry x="650" y="320" width="120" height="60" as="geometry" />
        </mxCell>
        <mxCell id="oS1sgOEpO3I71QpZgbu4-22" value="名称" style="html=1;dashed=0;whitespace=wrap;shape=mxgraph.dfd.start" vertex="1" parent="1">
          <mxGeometry x="590" y="150" width="80" height="30" as="geometry" />
        </mxCell>
        <mxCell id="oS1sgOEpO3I71QpZgbu4-23" value="地址" style="html=1;dashed=0;whitespace=wrap;shape=mxgraph.dfd.start" vertex="1" parent="1">
          <mxGeometry x="730" y="110" width="80" height="30" as="geometry" />
        </mxCell>
        <mxCell id="oS1sgOEpO3I71QpZgbu4-24" value="电话号码" style="html=1;dashed=0;whitespace=wrap;shape=mxgraph.dfd.start" vertex="1" parent="1">
          <mxGeometry x="860" y="140" width="80" height="30" as="geometry" />
        </mxCell>
        <mxCell id="oS1sgOEpO3I71QpZgbu4-26" value="数额" style="html=1;dashed=0;whitespace=wrap;shape=mxgraph.dfd.start" vertex="1" parent="1">
          <mxGeometry x="280" y="470" width="80" height="30" as="geometry" />
        </mxCell>
        <mxCell id="oS1sgOEpO3I71QpZgbu4-27" value="类型" style="html=1;dashed=0;whitespace=wrap;shape=mxgraph.dfd.start" vertex="1" parent="1">
          <mxGeometry x="345" y="510" width="80" height="30" as="geometry" />
        </mxCell>
        <mxCell id="oS1sgOEpO3I71QpZgbu4-28" value="到期时间" style="html=1;dashed=0;whitespace=wrap;shape=mxgraph.dfd.start" vertex="1" parent="1">
          <mxGeometry x="450" y="480" width="80" height="30" as="geometry" />
        </mxCell>
        <mxCell id="oS1sgOEpO3I71QpZgbu4-29" value="利率" style="html=1;dashed=0;whitespace=wrap;shape=mxgraph.dfd.start" vertex="1" parent="1">
          <mxGeometry x="544" y="510" width="80" height="30" as="geometry" />
        </mxCell>
        <mxCell id="oS1sgOEpO3I71QpZgbu4-30" value="密码" style="html=1;dashed=0;whitespace=wrap;shape=mxgraph.dfd.start" vertex="1" parent="1">
          <mxGeometry x="610" y="470" width="80" height="30" as="geometry" />
        </mxCell>
        <mxCell id="oS1sgOEpO3I71QpZgbu4-31" value="" style="endArrow=none;html=1;rounded=0;entryX=0;entryY=1;entryDx=0;entryDy=0;exitX=0.5;exitY=0.5;exitDx=0;exitDy=-15;exitPerimeter=0;" edge="1" parent="1" source="oS1sgOEpO3I71QpZgbu4-26" target="oS1sgOEpO3I71QpZgbu4-13">
          <mxGeometry width="50" height="50" relative="1" as="geometry">
            <mxPoint x="150" y="510" as="sourcePoint" />
            <mxPoint x="200" y="460" as="targetPoint" />
          </mxGeometry>
        </mxCell>
        <mxCell id="oS1sgOEpO3I71QpZgbu4-32" value="" style="endArrow=none;html=1;rounded=0;exitX=0.5;exitY=0.5;exitDx=0;exitDy=-15;exitPerimeter=0;entryX=0;entryY=1;entryDx=0;entryDy=0;" edge="1" parent="1" source="oS1sgOEpO3I71QpZgbu4-27" target="oS1sgOEpO3I71QpZgbu4-13">
          <mxGeometry width="50" height="50" relative="1" as="geometry">
            <mxPoint x="440" y="450" as="sourcePoint" />
            <mxPoint x="490" y="400" as="targetPoint" />
          </mxGeometry>
        </mxCell>
        <mxCell id="oS1sgOEpO3I71QpZgbu4-33" value="" style="endArrow=none;html=1;rounded=0;entryX=0.5;entryY=1;entryDx=0;entryDy=0;exitX=0.5;exitY=0.5;exitDx=0;exitDy=-15;exitPerimeter=0;" edge="1" parent="1" source="oS1sgOEpO3I71QpZgbu4-28" target="oS1sgOEpO3I71QpZgbu4-13">
          <mxGeometry width="50" height="50" relative="1" as="geometry">
            <mxPoint x="350" y="560" as="sourcePoint" />
            <mxPoint x="400" y="510" as="targetPoint" />
          </mxGeometry>
        </mxCell>
        <mxCell id="oS1sgOEpO3I71QpZgbu4-34" value="" style="endArrow=none;html=1;rounded=0;entryX=1;entryY=1;entryDx=0;entryDy=0;exitX=0.5;exitY=0.5;exitDx=0;exitDy=-15;exitPerimeter=0;" edge="1" parent="1" source="oS1sgOEpO3I71QpZgbu4-29" target="oS1sgOEpO3I71QpZgbu4-13">
          <mxGeometry width="50" height="50" relative="1" as="geometry">
            <mxPoint x="350" y="560" as="sourcePoint" />
            <mxPoint x="400" y="510" as="targetPoint" />
          </mxGeometry>
        </mxCell>
        <mxCell id="oS1sgOEpO3I71QpZgbu4-35" value="" style="endArrow=none;html=1;rounded=0;entryX=1;entryY=1;entryDx=0;entryDy=0;exitX=0.5;exitY=0.5;exitDx=0;exitDy=-15;exitPerimeter=0;" edge="1" parent="1" source="oS1sgOEpO3I71QpZgbu4-30" target="oS1sgOEpO3I71QpZgbu4-13">
          <mxGeometry width="50" height="50" relative="1" as="geometry">
            <mxPoint x="350" y="560" as="sourcePoint" />
            <mxPoint x="400" y="510" as="targetPoint" />
          </mxGeometry>
        </mxCell>
        <mxCell id="oS1sgOEpO3I71QpZgbu4-36" value="" style="endArrow=none;html=1;rounded=0;entryX=0.5;entryY=0.5;entryDx=0;entryDy=15;entryPerimeter=0;exitX=0.25;exitY=0;exitDx=0;exitDy=0;" edge="1" parent="1" source="oS1sgOEpO3I71QpZgbu4-19" target="oS1sgOEpO3I71QpZgbu4-22">
          <mxGeometry width="50" height="50" relative="1" as="geometry">
            <mxPoint x="770" y="360" as="sourcePoint" />
            <mxPoint x="820" y="310" as="targetPoint" />
          </mxGeometry>
        </mxCell>
        <mxCell id="oS1sgOEpO3I71QpZgbu4-37" value="" style="endArrow=none;html=1;rounded=0;entryX=0.5;entryY=0.5;entryDx=0;entryDy=15;entryPerimeter=0;exitX=0.5;exitY=0;exitDx=0;exitDy=0;" edge="1" parent="1" source="oS1sgOEpO3I71QpZgbu4-19" target="oS1sgOEpO3I71QpZgbu4-23">
          <mxGeometry width="50" height="50" relative="1" as="geometry">
            <mxPoint x="770" y="360" as="sourcePoint" />
            <mxPoint x="820" y="310" as="targetPoint" />
          </mxGeometry>
        </mxCell>
        <mxCell id="oS1sgOEpO3I71QpZgbu4-38" value="" style="endArrow=none;html=1;rounded=0;entryX=0.5;entryY=0.5;entryDx=0;entryDy=15;entryPerimeter=0;exitX=0.75;exitY=0;exitDx=0;exitDy=0;" edge="1" parent="1" source="oS1sgOEpO3I71QpZgbu4-19" target="oS1sgOEpO3I71QpZgbu4-24">
          <mxGeometry width="50" height="50" relative="1" as="geometry">
            <mxPoint x="770" y="360" as="sourcePoint" />
            <mxPoint x="820" y="310" as="targetPoint" />
          </mxGeometry>
        </mxCell>
        <mxCell id="oS1sgOEpO3I71QpZgbu4-39" value="&lt;font style=&quot;font-size: 22px&quot;&gt;MoHao&lt;/font&gt;" style="text;html=1;align=center;verticalAlign=middle;resizable=0;points=[];autosize=1;strokeColor=none;fillColor=none;" vertex="1" parent="1">
          <mxGeometry x="10" y="100" width="90" height="20" as="geometry" />
        </mxCell>
      </root>
    </mxGraphModel>
  </diagram>
</mxfile>
